<svg width="16" height="16" viewBox="0 0 16 16" fill="none" xmlns="http://www.w3.org/2000/svg">
<path fill-rule="evenodd" clip-rule="evenodd" d="M11 12.5V7.5C11 5.84315 9.65685 4.5 8 4.5C6.34315 4.5 5 5.84315 5 7.5V12.5H11ZM8 3.5C5.79086 3.5 4 5.29086 4 7.5V13.5H12V7.5C12 5.29086 10.2091 3.5 8 3.5Z" fill="black"/>
<path fill-rule="evenodd" clip-rule="evenodd" d="M3 13C3 12.7239 3.22386 12.5 3.5 12.5L12.5 12.5C12.7761 12.5 13 12.7239 13 13C13 13.2761 12.7761 13.5 12.5 13.5L3.5 13.5C3.22386 13.5 3 13.2761 3 13Z" fill="black"/>
<path fill-rule="evenodd" clip-rule="evenodd" d="M8 15C7.72386 15 7.5 14.7761 7.5 14.5V13.5C7.5 13.2239 7.72386 13 8 13C8.27614 13 8.5 13.2239 8.5 13.5V14.5C8.5 14.7761 8.27614 15 8 15Z" fill="black"/>
<path fill-rule="evenodd" clip-rule="evenodd" d="M8 4C7.72386 4 7.5 3.77614 7.5 3.5V2.5C7.5 2.22386 7.72386 2 8 2C8.27614 2 8.5 2.22386 8.5 2.5V3.5C8.5 3.77614 8.27614 4 8 4Z" fill="black"/>
</svg>
