<svg width="16" height="16" viewBox="0 0 16 16" fill="none" xmlns="http://www.w3.org/2000/svg">
<path fill-rule="evenodd" clip-rule="evenodd" d="M8.11111 3H5C4.44772 3 4 3.44772 4 4V8.88889C4 9.44117 4.44772 9.88889 5 9.88889H8.11111C8.6634 9.88889 9.11111 9.44117 9.11111 8.88889V4C9.11111 3.44771 8.6634 3 8.11111 3ZM5 2C3.89543 2 3 2.89543 3 4V8.88889C3 9.99346 3.89543 10.8889 5 10.8889H8.11111C9.21568 10.8889 10.1111 9.99346 10.1111 8.88889V4C10.1111 2.89543 9.21568 2 8.11111 2H5Z" fill="black"/>
<path fill-rule="evenodd" clip-rule="evenodd" d="M5.33333 9.88889V11.3333C5.33333 12.4379 6.22876 13.3333 7.33333 13.3333H10.4444C11.549 13.3333 12.4444 12.4379 12.4444 11.3333V6.44444C12.4444 5.33987 11.549 4.44444 10.4444 4.44444H9.11111V5.44444H10.4444C10.9967 5.44444 11.4444 5.89216 11.4444 6.44444V11.3333C11.4444 11.8856 10.9967 12.3333 10.4444 12.3333H7.33333C6.78104 12.3333 6.33333 11.8856 6.33333 11.3333V9.88889H5.33333Z" fill="black"/>
</svg>
