<svg width="18" height="18" viewBox="0 0 18 18" fill="none" xmlns="http://www.w3.org/2000/svg">
<path d="M4.5 5C4.5 4.17157 5.17157 3.5 6 3.5H10C10.8284 3.5 11.5 4.17157 11.5 5V11C11.5 11.8284 10.8284 12.5 10 12.5H6C5.17157 12.5 4.5 11.8284 4.5 11V5Z" stroke="black"/>
<path fill-rule="evenodd" clip-rule="evenodd" d="M6 13C6 14.1046 6.89543 15 8 15H12C13.1046 15 14 14.1046 14 13V7C14 5.89543 13.1046 5 12 5V6C12.5523 6 13 6.44772 13 7V13C13 13.5523 12.5523 14 12 14H8C7.44772 14 7 13.5523 7 13H6Z" fill="black"/>
</svg>
