<svg width="16" height="16" viewBox="0 0 16 16" fill="none" xmlns="http://www.w3.org/2000/svg">
<path fill-rule="evenodd" clip-rule="evenodd" d="M8 3.5C8.27614 3.5 8.5 3.72386 8.5 4V8.79289L10.1464 7.14645C10.3417 6.95118 10.6583 6.95118 10.8536 7.14645C11.0488 7.34171 11.0488 7.65829 10.8536 7.85355L8.35355 10.3536C8.15829 10.5488 7.84171 10.5488 7.64645 10.3536L5.14645 7.85355C4.95118 7.65829 4.95118 7.34171 5.14645 7.14645C5.34171 6.95118 5.65829 6.95118 5.85355 7.14645L7.5 8.79289V4C7.5 3.72386 7.72386 3.5 8 3.5ZM4 9.5C4.27614 9.5 4.5 9.72386 4.5 10V12.5H11.5V10C11.5 9.72386 11.7239 9.5 12 9.5C12.2761 9.5 12.5 9.72386 12.5 10V13C12.5 13.2761 12.2761 13.5 12 13.5H4C3.72386 13.5 3.5 13.2761 3.5 13V10C3.5 9.72386 3.72386 9.5 4 9.5Z" fill="black"/>
</svg>
