<svg width="16" height="16" viewBox="0 0 16 16" fill="none" xmlns="http://www.w3.org/2000/svg">
<path fill-rule="evenodd" clip-rule="evenodd" d="M7.48876 2.16667C7.53624 3.69801 5.54908 4.62116 4.42271 3.34888L4.41277 3.33765L3.41844 4.33198C4.54928 5.40957 3.74182 7.37716 2.16667 7.33406V8.83333C3.75922 8.83333 4.4286 10.6984 3.4908 11.7404L4.332 12.5816C5.40958 11.4508 7.37714 12.2582 7.33406 13.8333H8.66594C8.62283 12.2582 10.5904 11.4507 11.668 12.5816L12.576 11.6736C11.4353 10.5968 12.2461 8.61346 13.8333 8.66633V7.17205C13.8333 7.172 13.8334 7.1721 13.8333 7.17205C13.831 7.16974 13.8283 7.16808 13.8266 7.16736C13.8257 7.16696 13.8248 7.16667 13.8225 7.16667C12.2258 7.16667 11.5598 5.29409 12.5037 4.25414L11.668 3.41843C10.5904 4.5493 8.62283 3.74183 8.66594 2.16667H7.48876ZM11.1667 8C11.1667 9.7489 9.7489 11.1667 8 11.1667C6.2511 11.1667 4.83333 9.7489 4.83333 8C4.83333 6.2511 6.2511 4.83333 8 4.83333C9.7489 4.83333 11.1667 6.2511 11.1667 8ZM7.06977 1C6.53366 1 6.14661 1.51313 6.29389 2.02861C6.4645 2.62575 5.7079 3.04053 5.29624 2.57553L5.2863 2.56431C4.84072 2.06101 4.06312 2.03739 3.58781 2.5127L2.41632 3.68418C2.00735 4.09316 2.06225 4.77119 2.5317 5.10904C3.02701 5.4655 2.71162 6.24702 2.10763 6.15986C1.52332 6.07553 1 6.52875 1 7.11911V8.83333C1 9.47767 1.52302 10 2.16736 10C2.77231 10 2.97733 10.8074 2.44567 11.096C2.04158 11.3154 1.96233 11.8618 2.28747 12.1869L3.68422 13.5837C4.09318 13.9927 4.77119 13.9378 5.10903 13.4683C5.46549 12.973 6.24702 13.2884 6.15985 13.8924C6.07552 14.4767 6.52873 15 7.11908 15H8.88088C9.47125 15 9.92447 14.4767 9.84014 13.8924C9.75297 13.2884 10.5345 12.973 10.891 13.4683C11.2288 13.9377 11.9069 13.9926 12.3158 13.5837L13.5797 12.3198C13.9899 11.9096 13.9328 11.2291 13.4599 10.893C12.9614 10.5387 13.2749 9.75355 13.8804 9.84005C14.4713 9.92447 15 9.46594 15 8.86901V7.16667C15 6.52233 14.4668 6 13.8225 6C13.2159 6 13.0123 5.18919 13.5469 4.90256C13.9538 4.68438 14.0349 4.13537 13.7084 3.80887L12.3158 2.41633C11.9069 2.00735 11.2288 2.06225 10.891 2.53171C10.5345 3.02701 9.75297 2.71162 9.84014 2.10764C9.92447 1.52333 9.47125 1 8.88089 1H7.06977ZM10 8C10 9.10457 9.10457 10 8 10C6.89543 10 6 9.10457 6 8C6 6.89543 6.89543 6 8 6C9.10457 6 10 6.89543 10 8Z" fill="black"/>
</svg>
