<svg width="16" height="16" viewBox="0 0 16 16" fill="none" xmlns="http://www.w3.org/2000/svg">
<path d="M2.91239 6.39118C2.91239 8.53571 4.71541 10.6551 7.51786 12.4632C7.67355 12.5636 7.8644 12.6641 7.99498 12.6641C8.12556 12.6641 8.31641 12.5636 8.4721 12.4632C11.2796 10.6551 13.0776 8.53571 13.0776 6.39118C13.0776 4.53794 11.7969 3.25223 10.1546 3.25223C9.19532 3.25223 8.44699 3.68917 7.99498 4.35212C7.55302 3.69419 6.79967 3.25223 5.84041 3.25223C4.19308 3.25223 2.91239 4.53794 2.91239 6.39118ZM3.94699 6.38616C3.94699 5.12053 4.7807 4.26171 5.90067 4.26171C6.80469 4.26171 7.31195 4.80915 7.62835 5.28627C7.76898 5.49218 7.8644 5.55747 7.99498 5.55747C8.13058 5.55747 8.21596 5.48716 8.36161 5.28627C8.70313 4.81919 9.19029 4.26171 10.0893 4.26171C11.2143 4.26171 12.048 5.12053 12.048 6.38616C12.048 8.15401 10.2098 10.1127 8.09041 11.519C8.0452 11.5491 8.01507 11.5692 7.99498 11.5692C7.97489 11.5692 7.94476 11.5491 7.90458 11.519C5.78516 10.1127 3.94699 8.15401 3.94699 6.38616Z" fill="black"/>
</svg>
