<svg width="18" height="18" viewBox="0 0 18 18" fill="none" xmlns="http://www.w3.org/2000/svg">
<path d="M3.27643 7.19007C3.27643 9.60267 5.30482 11.987 8.45758 14.0211C8.63273 14.1341 8.84744 14.2471 8.99434 14.2471C9.14124 14.2471 9.35595 14.1341 9.5311 14.0211C12.6895 11.987 14.7123 9.60267 14.7123 7.19007C14.7123 5.10518 13.2715 3.65875 11.4239 3.65875C10.3447 3.65875 9.50285 4.15031 8.99434 4.89613C8.49713 4.15596 7.64961 3.65875 6.57044 3.65875C4.71721 3.65875 3.27643 5.10518 3.27643 7.19007ZM4.44035 7.18442C4.44035 5.76059 5.37827 4.79442 6.63824 4.79442C7.65526 4.79442 8.22593 5.41029 8.58188 5.94705C8.74009 6.1787 8.84744 6.25215 8.99434 6.25215C9.14689 6.25215 9.24295 6.17305 9.4068 5.94705C9.79101 5.42159 10.3391 4.79442 11.3504 4.79442C12.6161 4.79442 13.554 5.76059 13.554 7.18442C13.554 9.17326 11.486 11.3768 9.10169 12.9588C9.05084 12.9927 9.01694 13.0153 8.99434 13.0153C8.97174 13.0153 8.93784 12.9927 8.89264 12.9588C6.50829 11.3768 4.44035 9.17326 4.44035 7.18442Z" fill="black"/>
</svg>
