<svg width="16" height="16" viewBox="0 0 16 16" fill="none" xmlns="http://www.w3.org/2000/svg">
<path fill-rule="evenodd" clip-rule="evenodd" d="M12 6H9.5C9.22386 6 9 5.77614 9 5.5C9 5.22386 9.22386 5 9.5 5H12C12.4967 5 13.2306 5.14489 13.8547 5.59423C14.5042 6.06193 15 6.83704 15 8C15 9.16296 14.5042 9.93807 13.8547 10.4058C13.2306 10.8551 12.4967 11 12 11H9.5C9.22386 11 9 10.7761 9 10.5C9 10.2239 9.22386 10 9.5 10H12C12.3367 10 12.8528 9.89489 13.2703 9.59423C13.6624 9.31193 14 8.83704 14 8C14 7.16296 13.6624 6.68807 13.2703 6.40577C12.8528 6.10511 12.3367 6 12 6Z" fill="black"/>
<path fill-rule="evenodd" clip-rule="evenodd" d="M4 10L6.5 10C6.77614 10 7 10.2239 7 10.5C7 10.7761 6.77614 11 6.5 11L4 11C3.50332 11 2.76943 10.8551 2.14535 10.4058C1.49577 9.93807 1 9.16296 1 8C1 6.83704 1.49577 6.06193 2.14535 5.59423C2.76943 5.14489 3.50332 5 4 5L6.5 5C6.77614 5 7 5.22386 7 5.5C7 5.77614 6.77614 6 6.5 6L4 6C3.66334 6 3.14723 6.10511 2.72965 6.40577C2.33757 6.68807 2 7.16296 2 8C2 8.83704 2.33757 9.31193 2.72965 9.59423C3.14723 9.89489 3.66335 10 4 10Z" fill="black"/>
<path fill-rule="evenodd" clip-rule="evenodd" d="M4.5 8C4.5 7.72386 4.72386 7.5 5 7.5H11C11.2761 7.5 11.5 7.72386 11.5 8C11.5 8.27614 11.2761 8.5 11 8.5H5C4.72386 8.5 4.5 8.27614 4.5 8Z" fill="black"/>
</svg>
