<svg width="16" height="16" viewBox="0 0 16 16" fill="none" xmlns="http://www.w3.org/2000/svg">
<path fill-rule="evenodd" clip-rule="evenodd" d="M9.41421 3.75736L7.64644 5.52513C7.45118 5.72039 7.1346 5.72039 6.93934 5.52513C6.74407 5.32987 6.74407 5.01329 6.93934 4.81802L8.7071 3.05026C9.05831 2.69905 9.6797 2.28257 10.4387 2.15901C11.2288 2.03039 12.1274 2.22792 12.9497 3.05026C13.7721 3.87259 13.9696 4.77124 13.841 5.56127C13.7174 6.3203 13.3009 6.94169 12.9497 7.2929L11.182 9.06066C10.9867 9.25593 10.6701 9.25593 10.4749 9.06066C10.2796 8.8654 10.2796 8.54882 10.4749 8.35356L12.2426 6.58579C12.4807 6.34774 12.7713 5.90847 12.854 5.4006C12.9316 4.92373 12.8345 4.34924 12.2426 3.75736C11.6508 3.16549 11.0763 3.06838 10.5994 3.14601C10.0915 3.22869 9.65226 3.51931 9.41421 3.75736Z" fill="black"/>
<path fill-rule="evenodd" clip-rule="evenodd" d="M6.58578 12.2426L8.35355 10.4749C8.54881 10.2796 8.86539 10.2796 9.06066 10.4749C9.25592 10.6701 9.25592 10.9867 9.06066 11.182L7.29289 12.9498C6.94169 13.301 6.3203 13.7174 5.56127 13.841C4.77123 13.9696 3.87259 13.7721 3.05025 12.9498C2.22791 12.1274 2.03039 11.2288 2.159 10.4387C2.28256 9.67971 2.69904 9.05832 3.05025 8.70711L4.81802 6.93934C5.01328 6.74408 5.32986 6.74408 5.52512 6.93934C5.72038 7.13461 5.72038 7.45119 5.52512 7.64645L3.75736 9.41422C3.5193 9.65227 3.22868 10.0915 3.146 10.5994C3.06838 11.0763 3.16548 11.6508 3.75736 12.2426C4.34923 12.8345 4.92373 12.9316 5.40059 12.854C5.90846 12.7713 6.34773 12.4807 6.58578 12.2426Z" fill="black"/>
<path fill-rule="evenodd" clip-rule="evenodd" d="M5.52512 10.4749C5.32986 10.2796 5.32986 9.96303 5.52512 9.76777L9.76776 5.52513C9.96303 5.32987 10.2796 5.32987 10.4749 5.52513C10.6701 5.72039 10.6701 6.03698 10.4749 6.23224L6.23223 10.4749C6.03697 10.6701 5.72038 10.6701 5.52512 10.4749Z" fill="black"/>
</svg>
