<svg width="16" height="16" viewBox="0 0 16 16" fill="none" xmlns="http://www.w3.org/2000/svg">
<path fill-rule="evenodd" clip-rule="evenodd" d="M9.41421 3.75736L7.64644 5.52512C7.45118 5.72039 7.1346 5.72039 6.93934 5.52512C6.74407 5.32986 6.74407 5.01328 6.93934 4.81802L8.7071 3.05025C9.05831 2.69904 9.6797 2.28256 10.4387 2.159C11.2288 2.03039 12.1274 2.22791 12.9497 3.05025C13.7721 3.87259 13.9696 4.77123 13.841 5.56127C13.7174 6.3203 13.3009 6.94168 12.9497 7.29289L11.182 9.06066C10.9867 9.25592 10.6701 9.25592 10.4749 9.06066C10.2796 8.86539 10.2796 8.54881 10.4749 8.35355L12.2426 6.58578C12.4807 6.34773 12.7713 5.90846 12.854 5.40059C12.9316 4.92373 12.8345 4.34923 12.2426 3.75736C11.6508 3.16548 11.0763 3.06838 10.5994 3.14601C10.0915 3.22868 9.65226 3.5193 9.41421 3.75736Z" fill="black"/>
<path fill-rule="evenodd" clip-rule="evenodd" d="M6.58578 12.2426L8.35355 10.4749C8.54881 10.2796 8.86539 10.2796 9.06066 10.4749C9.25592 10.6701 9.25592 10.9867 9.06066 11.182L7.29289 12.9497C6.94169 13.3009 6.3203 13.7174 5.56127 13.841C4.77123 13.9696 3.87259 13.7721 3.05025 12.9497C2.22791 12.1274 2.03039 11.2288 2.159 10.4387C2.28256 9.6797 2.69904 9.05831 3.05025 8.7071L4.81802 6.93934C5.01328 6.74407 5.32986 6.74407 5.52512 6.93934C5.72038 7.1346 5.72038 7.45118 5.52512 7.64644L3.75736 9.41421C3.5193 9.65226 3.22868 10.0915 3.146 10.5994C3.06838 11.0763 3.16548 11.6508 3.75736 12.2426C4.34923 12.8345 4.92373 12.9316 5.40059 12.854C5.90846 12.7713 6.34773 12.4807 6.58578 12.2426Z" fill="black"/>
</svg>
