<svg width="16" height="16" viewBox="0 0 16 16" fill="none" xmlns="http://www.w3.org/2000/svg">
<path fill-rule="evenodd" clip-rule="evenodd" d="M3.25735 8C3.25735 7.72385 3.48121 7.5 3.75735 7.5H7.5V3.75735C7.5 3.48121 7.72385 3.25735 8 3.25735C8.27614 3.25735 8.5 3.48121 8.5 3.75735V7.5H12.2426C12.5188 7.5 12.7426 7.72385 12.7426 8C12.7426 8.27614 12.5188 8.5 12.2426 8.5H8.5V12.2426C8.5 12.5188 8.27614 12.7426 8 12.7426C7.72385 12.7426 7.5 12.5188 7.5 12.2426V8.5H3.75735C3.48121 8.5 3.25735 8.27614 3.25735 8Z" fill="black"/>
</svg>
