<svg width="16" height="16" viewBox="0 0 16 16" fill="none" xmlns="http://www.w3.org/2000/svg">
<path fill-rule="evenodd" clip-rule="evenodd" d="M8 3.5C8.13261 3.5 8.25978 3.55268 8.35355 3.64645L10.8536 6.14645C11.0488 6.34171 11.0488 6.65829 10.8536 6.85355C10.6583 7.04882 10.3417 7.04882 10.1464 6.85355L8.5 5.20711L8.5 10C8.5 10.2761 8.27614 10.5 8 10.5C7.72386 10.5 7.5 10.2761 7.5 10L7.5 5.20711L5.85355 6.85355C5.65829 7.04882 5.34171 7.04882 5.14645 6.85355C4.95118 6.65829 4.95118 6.34171 5.14645 6.14645L7.64645 3.64645C7.74021 3.55268 7.86739 3.5 8 3.5ZM4 9.5C4.27614 9.5 4.5 9.72386 4.5 10V12.5H11.5V10C11.5 9.72386 11.7239 9.5 12 9.5C12.2761 9.5 12.5 9.72386 12.5 10V13C12.5 13.2761 12.2761 13.5 12 13.5H4C3.72386 13.5 3.5 13.2761 3.5 13V10C3.5 9.72386 3.72386 9.5 4 9.5Z" fill="black"/>
</svg>
